<svg xmlns="http://www.w3.org/2000/svg" width="423.71" height="282.473" viewBox="0 0 423.71 282.473">
  <g id="Group_46" data-name="Group 46" transform="translate(423.71 0) rotate(90)">
    <path id="Path_366" data-name="Path 366" d="M70.618,70.618,141.237,0H0Z" transform="translate(282.473) rotate(90)" fill="#fad0c5"/>
    <path id="Path_361" data-name="Path 361" d="M70.618,141.237l70.618-70.618L70.618,0,0,70.618Z" transform="translate(211.855) rotate(90)" fill="#71b73e"/>
    <path id="Path_363" data-name="Path 363" d="M0,0V141.236H141.237Z" transform="translate(282.473 141.237) rotate(90)" fill="#0076c0" fill-rule="evenodd"/>
    <path id="Path_360" data-name="Path 360" d="M141.238,141.236A141.236,141.236,0,0,1,0,0H282.474A141.236,141.236,0,0,1,141.238,141.236Z" transform="translate(141.236 141.236) rotate(90)" fill="#e8343c"/>
    <path id="Path_365" data-name="Path 365" d="M0,35.309,35.309,0,70.618,35.309,35.309,70.618Z" transform="translate(247.164 35.309) rotate(90)" fill="#0076c0" fill-rule="evenodd"/>
  </g>
</svg>
