<svg xmlns="http://www.w3.org/2000/svg" width="34.009" height="34.01" viewBox="0 0 34.009 34.01">
  <path id="Shape_17" data-name="Shape 17" d="M1288.1,2135.453c-.943-1.8-1.885-2.894-2.8-4.712q-.5-.034-.983-.072c-1.189,1.763-2.458,3.392-3.689,4.972l-1.035,1.328-.665-1.546c-.934-2.165-1.657-3.923-2.29-5.778q-.473-.093-.936-.193a52.482,52.482,0,0,1-4.6,4.576l-1.209,1.055-.409-1.552a50.054,50.054,0,0,1-1.327-6.972l-.193-1.652,1.548.611c5.929,2.34,12.986,3.415,22.881,3.482l1.674.012-.809,1.464c-1.13,2.049-2.273,3.152-3.432,5.035l-.916,1.492Zm.948-2.353c.521-.73,1.078-1.434,1.562-2.133q-1.528-.03-2.966-.094C1288.084,2131.619,1288.571,2132.331,1289.046,2133.1Zm-8.951-.021c.668-.867,1.316-1.729,1.948-2.624q-1.638-.177-3.15-.414C1279.251,2131.024,1279.645,2132.009,1280.094,2133.08Zm-9.077-1.661c.823-.774,1.644-1.6,2.476-2.5-1.075-.287-2.118-.608-3.136-.963C1270.533,2129.107,1270.754,2130.265,1271.017,2131.419Zm25,5.558v-1.991h-2.058v-1.992h2.058V2131h1.993v1.99H1300v1.992h-1.992v1.991Zm-16.617-11.158c-1.287-1.652-2.6-3.5-4.01-5.655l-.916-1.4,1.667-.138c10.3-.86,15.837-3.177,21.93-6.89l1.427-.871.086,1.669c.139,2.7.159,4.909.066,6.953l-.076,1.652-1.426-.84a63.976,63.976,0,0,1-5.4-3.5c-.314.139-.634.272-.957.4a50.041,50.041,0,0,1-1.247,6.3l-.409,1.552-1.21-1.056a52.367,52.367,0,0,1-4.563-4.539c-.323.068-.651.136-.984.2-.678,2.006-1.443,4-2.275,5.933l-.666,1.546Zm-1.424-5.364c.67.988,1.32,1.909,1.958,2.771.423-1.047.825-2.107,1.2-3.173C1280.134,2120.2,1279.083,2120.338,1277.979,2120.454Zm8.6-1.513c.819.88,1.626,1.7,2.434,2.456.262-1.14.48-2.273.652-3.391C1288.682,2118.345,1287.659,2118.658,1286.58,2118.941Zm8.239-3.109c.858.6,1.812,1.216,2.893,1.879.015-1.06,0-2.187-.042-3.42C1296.728,2114.835,1295.783,2115.35,1294.818,2115.833Zm-26.823,7.14v-1.992H1266v-1.99H1268V2117h1.992v1.992h1.993v1.99h-1.993v1.992Zm18.11-8.572c-.914-1.74-1.854-3.647-2.8-5.675-.337-.021-.667-.045-1-.069-1.139,1.728-2.364,3.532-3.677,5.215l-1.035,1.327-.665-1.545c-.778-1.8-1.537-3.805-2.263-5.958q-.521-.1-1.029-.206a53.682,53.682,0,0,1-4.6,4.57l-1.21,1.055-.409-1.551a49.1,49.1,0,0,1-1.24-6.913l-.192-1.653,1.548.611c5.781,2.282,12.618,3.287,22.86,3.356l1.674.012-1.07,1.938c-1.012,1.838-2.06,3.739-3.17,5.544l-.916,1.493Zm.947-2.513c.568-.975,1.124-1.968,1.669-2.952-1.091-.019-2.141-.05-3.157-.092Q1286.313,2110.425,1287.052,2111.888Zm-8.951-.62c.672-.924,1.324-1.87,1.95-2.806q-1.635-.166-3.143-.391C1277.3,2109.185,1277.7,2110.254,1278.1,2111.268Zm-9.133-1.827q1.222-1.149,2.456-2.476c-1.054-.277-2.068-.585-3.051-.925C1268.546,2107.273,1268.742,2108.392,1268.968,2109.441Zm27.052-.472v-1.992h-1.993v-1.991h1.993v-1.992h1.993v1.992H1300v1.991h-1.992v1.992Z" transform="translate(-1265.995 -2102.994)" fill="#e8343c"/>
</svg>
