<svg xmlns="http://www.w3.org/2000/svg" width="34.009" height="34.009" viewBox="0 0 34.009 34.009">
  <path id="Shape_15" data-name="Shape 15" d="M1266,1931v-14.611l5.011-4.455v-1.306h-5.02v-5.979h7.012v7.285l3.019,2.684v-8.6L1282,1900.7v-3.713H1284v3.713l5.979,5.314v8.6l3.018-2.684v-7.285H1300v5.979h-5.018v1.306l5.01,4.455V1931Zm23.971-13.716v11.724H1298v-11.724l-4.014-3.568Zm-3.985,8.069v3.654h1.993v-22.094l-4.981-4.428-4.982,4.428v22.094h1.993v-3.654a2.989,2.989,0,0,1,5.979,0Zm-3.985,0v3.654H1284v-3.654a1,1,0,1,0-1.992,0ZM1268,1917.283v11.724h8.029v-11.724l-4.014-3.568Zm26.989-8.648h3.027v-1.993h-3.027Zm-27,0h3.027v-1.993h-3.027Zm23.981,15.665v-1.99h4.04v1.99Zm-21.98,0v-1.99h4.04v1.99Zm10.99-3.93v-1.99h4.04v1.99Zm10.99-.059v-1.99h4.04v1.99Zm-21.98,0v-1.99h4.04v1.99Zm10.99-3.93v-1.99h4.04v1.99Zm-.969-6.97a2.989,2.989,0,1,1,2.99,2.99A2.993,2.993,0,0,1,1280.011,1909.41Zm1.994,0a1,1,0,1,0,1-1A1,1,0,0,0,1282,1909.41Z" transform="translate(-1265.995 -1896.99)" fill="#e8343c"/>
</svg>
