<svg xmlns="http://www.w3.org/2000/svg" width="24.127" height="23.16" viewBox="0 0 24.127 23.16"><defs><style>.a{fill:#0076c0;}</style></defs><path class="a" d="M24.08,22.956a9.511,9.511,0,0,0-7.4-8.34v-1.2a1.6,1.6,0,0,0-.387-3.157H12.9a1.6,1.6,0,0,0-.387,3.157v1.2a9.462,9.462,0,0,0-4.641,2.553,9.564,9.564,0,0,0-.8.908l-.036,0H3.684a.471.471,0,1,0,0,.942H6.436A9.447,9.447,0,0,0,5.6,20.832H.471a.471.471,0,0,0,0,.942H5.334A9.581,9.581,0,0,0,5.1,23.586H3.016a.471.471,0,1,0,0,.942h2.1a9.567,9.567,0,0,0,.294,1.811H2.356a.471.471,0,1,0,0,.942H5.71a9.518,9.518,0,0,0,7.958,6.094q.467.046.934.046A9.542,9.542,0,0,0,19.8,31.886a.471.471,0,0,0-.514-.79,8.576,8.576,0,1,1,2.526-2.529.471.471,0,1,0,.79.513A9.549,9.549,0,0,0,24.08,22.956ZM12.245,11.864a.66.66,0,0,1,.66-.66H16.3a.66.66,0,0,1,0,1.319H12.9A.66.66,0,0,1,12.245,11.864Zm1.215,2.593v-.991h2.281v.989A9.6,9.6,0,0,0,13.46,14.458Z" transform="translate(0 -10.262)"/><path class="a" d="M436.241,425.5a.471.471,0,1,0,.333.138A.474.474,0,0,0,436.241,425.5Z" transform="translate(-415.235 -405.933)"/><path class="a" d="M162.182,144.609a7.31,7.31,0,1,0,7.31,7.31A7.318,7.318,0,0,0,162.182,144.609Zm0,13.678a6.368,6.368,0,1,1,6.368-6.368A6.375,6.375,0,0,1,162.182,158.287Z" transform="translate(-147.574 -138.278)"/><path class="a" d="M262.513,219.549l-2.334,2.334a1.461,1.461,0,0,0-1.294,0l-1.045-1.045a.471.471,0,0,0-.666.666l1.045,1.045a1.464,1.464,0,1,0,2.627,0l2.266-2.266h0l.068-.068a.471.471,0,0,0-.666-.666Zm-2.981,4.169a.522.522,0,1,1,.522-.522A.522.522,0,0,1,259.532,223.718Z" transform="translate(-244.924 -209.555)"/><path class="a" d="M398.563,289.86h-.437a.471.471,0,1,0,0,.942h.437a.471.471,0,0,0,0-.942Z" transform="translate(-378.916 -276.684)"/><path class="a" d="M193.99,289.616h-.437a.471.471,0,0,0,0,.942h.437a.471.471,0,1,0,0-.942Z" transform="translate(-183.983 -276.452)"/><path class="a" d="M300.594,184.2a.471.471,0,0,0,.471-.471v-.437a.471.471,0,1,0-.942,0v.437A.471.471,0,0,0,300.594,184.2Z" transform="translate(-285.98 -174.688)"/><path class="a" d="M300.35,387.393a.471.471,0,0,0-.471.471v.437a.471.471,0,1,0,.942,0v-.437A.471.471,0,0,0,300.35,387.393Z" transform="translate(-285.748 -369.621)"/><path class="a" d="M.471,351.44a.471.471,0,1,0,.333.8.471.471,0,0,0-.333-.8Z" transform="translate(0 -335.362)"/></svg>