<svg xmlns="http://www.w3.org/2000/svg" width="20.02" height="20.02" viewBox="0 0 20.02 20.02"><defs><style>.a{fill:#0076c0;}</style></defs><path class="a" d="M1056.931,1429.087a10.008,10.008,0,1,1,7.078,2.932A9.941,9.941,0,0,1,1056.931,1429.087Zm-1.76-7.078a8.837,8.837,0,1,0,8.837-8.837A8.848,8.848,0,0,0,1055.172,1422.009Zm1.174,0a7.663,7.663,0,1,1,7.663,7.663A7.672,7.672,0,0,1,1056.345,1422.009Zm1.174,0a6.49,6.49,0,1,0,6.49-6.491A6.5,6.5,0,0,0,1057.519,1422.009Zm5.9,5.311v-1.17h1.17v1.17Zm2.153-1.427,1.016-.587.586,1.016-1.015.586Zm-4.73.429.586-1.016,1.016.587-.587,1.015Zm6.462-1.732.587-1.015,1.016.587-.587,1.015Zm-8.194-.429,1.015-.587.587,1.016-1.015.587Zm4.312-1.564v-5.9h1.174v4.73h4.731v1.174Zm-4.732-.005v-1.17h1.17v1.17Zm.42-2.732.588-1.015,1.015.586-.587,1.016Zm1.732-2.161,1.016-.586.586,1.015-1.015.587Z" transform="translate(-1053.999 -1411.999)"/></svg>