<svg xmlns="http://www.w3.org/2000/svg" width="29.75" height="34.01" viewBox="0 0 29.75 34.01">
  <path id="Shape_18" data-name="Shape 18" d="M1650.263,2137v-1.993h5.95v-4.1a2.977,2.977,0,0,1-2.33-2.211l-.991-3.985a2.986,2.986,0,0,1,2.886-3.714h.435v-18h14.729l-4.958,4.982,4.958,4.982H1658.2v4.224a2.923,2.923,0,0,1,.992-.173A10.944,10.944,0,0,1,1667.6,2121h.51V2119h11.9v11.957h-11.9v-1.993h-.76a19.8,19.8,0,0,1-8.632,1.993h-.524v4.052h5.95V2137Zm19.832-8.037h7.933V2121h-7.933Zm-15.279-4.74.992,3.985a.99.99,0,0,0,.961.755h1.95a17.786,17.786,0,0,0,8.167-1.992h1.225v-3.986h-1.487a9.032,9.032,0,0,0-7.438-3.985,1,1,0,0,0-.992,1v1h1.983v1.993h-4.4A1,1,0,0,0,1654.816,2124.227Zm3.38-13.261h7.959l-2.974-2.989,2.974-2.989H1658.2Zm13.885,16v-1.99h1.98v1.99Z" transform="translate(-1650.263 -2102.994)" fill="#e8343c"/>
</svg>
