<svg xmlns="http://www.w3.org/2000/svg" width="20.007" height="20.006" viewBox="0 0 20.007 20.006"><defs><style>.a{fill:#0076c0;}</style></defs><path class="a" d="M890.875,1432.005v-1.765l3.048-2.462v-8.651a2.93,2.93,0,1,1-2.54-5.026V1412h15.474v2.158a2.93,2.93,0,1,1-2.776,4.971v8.651l3.049,2.462v1.765Zm1.173-1.2v.032h13.91v-.032l-2.668-2.156h-8.573Zm3.047-3.328h7.816V1426.3h-7.816Zm5.992-2.344h1.823v-6.838h-1.823Zm-3,0h1.823v-6.838H898.09Zm-3,0h1.824v-6.838h-1.824Zm9.222-8.147a1.759,1.759,0,1,0,1.758-1.759A1.76,1.76,0,0,0,904.316,1416.982Zm-14.145,0a1.759,1.759,0,1,0,1.759-1.759A1.761,1.761,0,0,0,890.171,1416.982Zm4.689,0c0,.046,0,.092,0,.137h8.292c0-.045,0-.091,0-.137a2.913,2.913,0,0,1,.19-1.036h-8.662A2.933,2.933,0,0,1,894.86,1416.982Zm-2.3-2.863a2.927,2.927,0,0,1,1.3.655h10.3a2.919,2.919,0,0,1,1.534-.7v-.907H892.555Zm12.935,3.451v-1.17h1.17v1.17Zm-14.15,0v-1.17h1.17v1.17Z" transform="translate(-888.998 -1411.999)"/></svg>