<svg xmlns="http://www.w3.org/2000/svg" width="20.002" height="20.161" viewBox="0 0 20.002 20.161"><defs><style>.a{fill:#0076c0;}</style></defs><path class="a" d="M901.091,1489.159H890.8a1.809,1.809,0,0,1-1.26-.511,1.739,1.739,0,0,1-.544-1.26v-10.737a2.118,2.118,0,0,1,.621-1.511,2.091,2.091,0,0,1,1.492-.619h.9V1469h6.576a2.5,2.5,0,0,0,3.837,0H909v12.769h-6.577a1.326,1.326,0,0,0-1.321,1.3v3.729a.618.618,0,0,0-.617.59.625.625,0,0,0,.625.59v1.181Zm-10.912-1.77a.624.624,0,0,0,.625.59h8.608a1.722,1.722,0,0,1,0-1.181H890.8A.624.624,0,0,0,890.178,1487.389Zm.275-11.415a.947.947,0,0,0-.275.676v9.08a1.8,1.8,0,0,1,.625-.112H892V1475.7h-.885A.921.921,0,0,0,890.454,1475.974Zm2.721,9.644h6.737v-2.623a1.331,1.331,0,0,0-1.325-1.227h-5.412Zm7.919-14.123s0,.009,0,.014v9.459a2.5,2.5,0,0,1,1.328-.382h5.4V1470.18h-5.4A1.332,1.332,0,0,0,901.094,1471.5Zm-7.9,9.092h5.4a2.49,2.49,0,0,1,1.325.38l0-9.457v-.014a1.331,1.331,0,0,0-1.329-1.316h-5.4Zm9.3-1.247v-1.18h3.98v1.18Zm-7.96,0v-1.18h3.991v1.18Zm7.96-2.209v-1.181h3.98v1.181Zm-7.96,0v-1.181h3.991v1.181Zm7.96-2.22v-1.18h3.98v1.18Zm-7.96,0v-1.18h3.991v1.18Zm7.96-2.24v-1.18h3.98v1.18Zm-7.96,0v-1.18h3.991v1.18Z" transform="translate(-888.998 -1468.999)"/></svg>