<svg xmlns="http://www.w3.org/2000/svg" width="21" height="21" viewBox="0 0 21 21"><defs><style>.a{fill:#0076c0;}</style></defs><path class="a" d="M17.916,3.084A10.488,10.488,0,1,0,3.084,17.916,10.488,10.488,0,1,0,17.916,3.084ZM10.5,19.77a9.27,9.27,0,1,1,9.27-9.27A9.28,9.28,0,0,1,10.5,19.77Z" transform="translate(0 0)"/><path class="a" d="M69,61a8,8,0,1,0,8,8A8.007,8.007,0,0,0,69,61Zm0,14.766A6.768,6.768,0,1,1,75.766,69,6.775,6.775,0,0,1,69,75.766Z" transform="translate(-58.498 -58.498)"/><path class="a" d="M185.922,124.538a.615.615,0,0,0,1.23,0,2.269,2.269,0,0,0-.967-1.8,3.381,3.381,0,0,0-1.494-.615v-.664a.615.615,0,0,0-1.23,0v.664a3.381,3.381,0,0,0-1.494.615,2.154,2.154,0,0,0,0,3.595,3.381,3.381,0,0,0,1.494.615v2.437c-.709-.173-1.23-.633-1.23-1.157a.615.615,0,1,0-1.23,0,2.269,2.269,0,0,0,.967,1.8,3.381,3.381,0,0,0,1.494.615v.671a.615.615,0,0,0,1.23,0v-.671a3.381,3.381,0,0,0,1.494-.615,2.154,2.154,0,0,0,0-3.595,3.381,3.381,0,0,0-1.494-.615v-2.437C185.4,123.555,185.922,124.014,185.922,124.538Zm-3.691,0c0-.524.522-.984,1.23-1.157V125.7C182.752,125.522,182.23,125.062,182.23,124.538Zm3.691,3.691c0,.524-.522.984-1.23,1.157v-2.314C185.4,127.246,185.922,127.706,185.922,128.23Z" transform="translate(-173.576 -115.89)"/></svg>