<svg xmlns="http://www.w3.org/2000/svg" width="34.01" height="34.01" viewBox="0 0 34.01 34.01">
  <path id="Shape_19" data-name="Shape 19" d="M1646,1931v-34.01h1.993v1.994h1.993v1.993h-1.993v4.052h1.993v1.993h-1.993V1911h1.993V1913h-1.993v3.985h1.993v1.993h-1.993v3.986h1.993v1.993h-1.993v4.052h6.045v-4.052h10.03v4.052h1.992v-8.037h9.965v8.037h3.985V1931Zm22.053-1.993h5.979v-6.044h-5.979Zm-12.022,0h6.044v-2.059h-6.044Zm12.422-13.519a2.991,2.991,0,0,1-.229-2.49h-6.149v-2.974a5.005,5.005,0,0,1,3.985-4.893v-.63a8.119,8.119,0,0,1,4.536-7.286l.446-.222.446.222a8.12,8.12,0,0,1,4.537,7.286v.63a5.005,5.005,0,0,1,3.985,4.893V1913h-6.15a2.993,2.993,0,0,1-.228,2.489l-2.59,4.485Zm1.594-1.493a.987.987,0,0,0,.132.5l.864,1.5.864-1.5a.986.986,0,0,0,.131-.5,1,1,0,1,0-1.992,0Zm5.979-2.99h1.993v-.981a3.009,3.009,0,0,0-1.993-2.828Zm-7.972-6.5v6.5h5.979v-6.5a3.479,3.479,0,1,0-5.979,0Zm-3.984,5.523V1911h1.992V1907.2A3.007,3.007,0,0,0,1664.068,1910.023Zm5.981-5v-1.99h1.99v1.99Z" transform="translate(-1646 -1896.989)" fill="#e8343c"/>
</svg>
