<svg xmlns="http://www.w3.org/2000/svg" width="22" height="22" viewBox="0 0 22 22"><defs><style>.a{fill:#0076c0;}</style></defs><path class="a" d="M21.974,1.642A1.71,1.71,0,0,0,20.357.026a16.982,16.982,0,0,0-8.513,1.7A16.714,16.714,0,0,0,6.963,5.777l-.052.063L3.69,6.089a1.7,1.7,0,0,0-1.3.763L.2,10.176A1.178,1.178,0,0,0,1,11.99l2.714.42c-.01.053-.019.105-.028.158a1.709,1.709,0,0,0,.479,1.487l3.781,3.781a1.713,1.713,0,0,0,1.209.5,1.685,1.685,0,0,0,.277-.023l.158-.028L10.01,21a1.177,1.177,0,0,0,1.814.8l3.325-2.2a1.7,1.7,0,0,0,.762-1.3l.249-3.222.063-.052a16.712,16.712,0,0,0,4.047-4.881,16.983,16.983,0,0,0,1.7-8.513ZM14.437,18.531l-3.18,2.1-.41-2.645a14.439,14.439,0,0,0,3.94-1.876l-.162,2.1a.42.42,0,0,1-.188.32ZM8.856,16.925,5.075,13.144a.418.418,0,0,1-.119-.363,11.088,11.088,0,0,1,.5-1.915l5.673,5.673a11.135,11.135,0,0,1-1.914.5.418.418,0,0,1-.363-.119ZM3.789,7.374l2.1-.162a14.438,14.438,0,0,0-1.876,3.94l-2.645-.41,2.1-3.18A.42.42,0,0,1,3.789,7.374ZM15.4,14.047A14.778,14.778,0,0,1,12.414,16L6,9.586A15.033,15.033,0,0,1,7.953,6.6a15.382,15.382,0,0,1,4.483-3.728,15.678,15.678,0,0,1,7.851-1.562.423.423,0,0,1,.4.4,15.677,15.677,0,0,1-1.562,7.851A15.382,15.382,0,0,1,15.4,14.047Z" transform="translate(0 0)"/><path class="a" d="M279.191,93.25a3.465,3.465,0,1,0-2.452-1.014A3.458,3.458,0,0,0,279.191,93.25Zm-1.471-4.937a2.08,2.08,0,1,1-.609,1.471A2.074,2.074,0,0,1,277.719,88.313Z" transform="translate(-264.249 -82.726)"/><path class="a" d="M1,346.616a.691.691,0,0,0,.49-.2l2.264-2.264a.694.694,0,0,0-.981-.981L.5,345.432A.694.694,0,0,0,1,346.616Z" transform="translate(-0.288 -328.432)"/><path class="a" d="M5.538,388.049a.694.694,0,0,0-.981,0L.2,392.4a.693.693,0,1,0,.981.981l4.353-4.353A.693.693,0,0,0,5.538,388.049Z" transform="translate(0 -371.586)"/><path class="a" d="M92.53,432.93l-2.264,2.264a.694.694,0,1,0,.981.981l2.264-2.264a.694.694,0,1,0-.981-.981Z" transform="translate(-86.246 -414.392)"/></svg>